<?xml version="1.0" encoding="iso-8859-1"?>
<!-- Generator: Adobe Illustrator 16.0.0, SVG Export Plug-In . SVG Version: 6.00 Build 0)  -->
<!DOCTYPE svg PUBLIC "-//W3C//DTD SVG 1.1//EN" "http://www.w3.org/Graphics/SVG/1.1/DTD/svg11.dtd">
<svg version="1.1" id="Capa_1" xmlns="http://www.w3.org/2000/svg" xmlns:xlink="http://www.w3.org/1999/xlink" x="0px" y="0px"
	 width="471.815px" height="471.816px" viewBox="0 0 471.815 471.816" style="enable-background:new 0 0 471.815 471.816;"
	 xml:space="preserve">
<g>
	<g>
		<path d="M434.715,123.979c0-22.231-18.021-40.251-40.25-40.251H40.25C18.02,83.728,0,101.749,0,123.979v35.247h434.715V123.979
			L434.715,123.979z"/>
		<path d="M409.098,267.751c0-0.662-0.265-1.299-0.732-1.768l-14.143-14.143c-0.978-0.977-2.56-0.977-3.535,0l-18.742,18.73
			l-18.742-18.73c-0.977-0.977-2.559-0.977-3.535,0l-14.143,14.143c-0.469,0.469-0.732,1.104-0.732,1.768
			c0,0.664,0.265,1.3,0.732,1.769l18.735,18.726l-18.735,18.727c-0.978,0.977-0.978,2.559,0,3.535l14.143,14.143
			c0.47,0.469,1.104,0.732,1.769,0.732c0.662,0,1.299-0.264,1.768-0.732l18.742-18.73l18.742,18.73
			c0.469,0.469,1.104,0.732,1.768,0.732c0.664,0,1.299-0.264,1.769-0.732l14.143-14.143c0.978-0.977,0.978-2.559,0-3.535
			l-18.736-18.727l18.736-18.726C408.834,269.051,409.098,268.416,409.098,267.751z"/>
		<path d="M372.021,188.501c-18.22,0-35.312,4.912-50.029,13.475H0v122.11c0,22.229,18.02,40.251,40.25,40.251h267.226
			c17.414,14.805,39.955,23.75,64.547,23.75c55.026,0,99.793-44.766,99.793-99.793C471.814,233.268,427.049,188.501,372.021,188.501
			z M148.643,309.17c0,2.852-2.313,5.163-5.164,5.163H63.855c-2.852,0-5.165-2.312-5.165-5.163v-15.71
			c0-2.854,2.313-5.165,5.165-5.165h79.624c2.852,0,5.164,2.312,5.164,5.165V309.17z M372.021,351.546
			c-34.935,0-63.25-28.318-63.25-63.251s28.315-63.25,63.25-63.25c34.934,0,63.25,28.318,63.25,63.25
			S406.955,351.546,372.021,351.546z"/>
	</g>
</g>
<g>
</g>
<g>
</g>
<g>
</g>
<g>
</g>
<g>
</g>
<g>
</g>
<g>
</g>
<g>
</g>
<g>
</g>
<g>
</g>
<g>
</g>
<g>
</g>
<g>
</g>
<g>
</g>
<g>
</g>
</svg>
